<svg width="16" height="16" viewBox="0 0 16 16" fill="none" xmlns="http://www.w3.org/2000/svg">
<g clip-path="url(#clip0)">
<path d="M3.78223 16.0859H12.2197C13.1327 16.0859 13.876 15.3435 13.876 14.4297V7.86719C13.876 6.95342 13.1327 6.21094 12.2197 6.21094H3.78223C2.86923 6.21094 2.12598 6.95342 2.12598 7.86719V14.4297C2.12598 15.3435 2.86923 16.0859 3.78223 16.0859ZM3.56348 7.86719C3.56348 7.74673 3.66196 7.64844 3.78223 7.64844H12.2197C12.34 7.64844 12.4385 7.74673 12.4385 7.86719V14.4297C12.4385 14.5501 12.34 14.6484 12.2197 14.6484H3.78223C3.66196 14.6484 3.56348 14.5501 3.56348 14.4297V7.86719Z" fill="#A9A9A9" stroke="#222222" stroke-width="0.5"/>
<path d="M10.5635 6.92969C10.5635 7.32651 10.8854 7.64844 11.2822 7.64844C11.679 7.64844 12.001 7.32651 12.001 6.92969V4.58594C12.001 2.37974 10.2072 0.585938 8.00098 0.585938C5.79478 0.585938 4.00098 2.37974 4.00098 4.58594V6.92969C4.00098 7.32651 4.32291 7.64844 4.71973 7.64844C5.11655 7.64844 5.43848 7.32651 5.43848 6.92969V4.58594C5.43848 3.17338 6.58842 2.02344 8.00098 2.02344C9.41353 2.02344 10.5635 3.17338 10.5635 4.58594V6.92969Z" fill="#A9A9A9" stroke="#222222" stroke-width="0.5"/>
<path d="M7.28223 12.8672C7.28223 13.264 7.60416 13.5859 8.00098 13.5859C8.3978 13.5859 8.71973 13.264 8.71973 12.8672V11.1484C8.71973 10.7516 8.3978 10.4297 8.00098 10.4297C7.60416 10.4297 7.28223 10.7516 7.28223 11.1484V12.8672Z" fill="#A9A9A9" stroke="#222222" stroke-width="0.5"/>
<path d="M6.50098 10.2109C6.50098 11.0384 7.17353 11.7109 8.00097 11.7109C8.82842 11.7109 9.50097 11.0384 9.50097 10.2109C9.50097 9.38349 8.82842 8.71094 8.00097 8.71094C7.17353 8.71094 6.50098 9.38349 6.50098 10.2109ZM7.93847 10.2109C7.93847 10.1768 7.96684 10.1484 8.00097 10.1484C8.0351 10.1484 8.06347 10.1768 8.06347 10.2109C8.06347 10.245 8.0351 10.2734 8.00097 10.2734C7.96684 10.2734 7.93847 10.245 7.93847 10.2109Z" fill="#A9A9A9" stroke="#222222" stroke-width="0.5"/>
<rect x="7.53223" y="11.0991" width="0.9375" height="1.57895" fill="#A9A9A9"/>
<rect x="3.65918" y="6.46289" width="8.68421" height="0.935573" fill="#A9A9A9"/>
</g>
<defs>
<clipPath id="clip0">
<rect width="15" height="15" fill="white" transform="translate(0.500977 0.835938)"/>
</clipPath>
</defs>
</svg>
