<svg width="13" height="13" viewBox="0 0 13 13" fill="none" xmlns="http://www.w3.org/2000/svg">
<path d="M12.123 9.75947C12.6722 8.81402 12.9912 7.71842 12.9998 6.54873C13.0259 2.98501 10.1508 0.0472892 6.5873 0.00057051C2.91949 -0.0474431 -0.0589073 2.94136 0.000884788 6.60804C0.0588905 10.1637 2.99355 13.0266 6.54956 12.9998C7.58674 12.992 8.56506 12.7399 9.43228 12.3007L11.1552 12.2969C11.6927 12.2958 12.1275 11.8591 12.1263 11.3215L12.123 9.75947Z" fill="#0052B4"/>
<path d="M6 0C2.59712 0.312845 -0.0561191 3.16254 0.000902046 6.60855C0.0562851 9.95605 2.68677 12.6923 5.99997 13V0H6Z" fill="#0052B4"/>
<path d="M12.7264 8.36801C12.8997 7.79118 12.9952 7.18084 12.9998 6.54874C13.0047 5.88305 12.9083 5.23926 12.7251 4.63202H9.30623L11.5424 2.40711C11.2663 2.06755 10.9565 1.75639 10.6184 1.47831L8.3775 3.70795V0.277127C7.80952 0.105054 7.20899 0.00872161 6.58736 0.000571188C5.90336 -0.00839174 5.24338 0.088347 4.62256 0.27535V3.708L2.37762 1.47438C2.03933 1.75218 1.7297 2.06349 1.45361 2.40317L3.69376 4.63202H0.272385C0.0853525 5.25645 -0.0103201 5.92034 0.000883003 6.60803C0.0108356 7.21883 0.105692 7.80921 0.274018 8.36799H3.69378L1.45733 10.5932C1.73376 10.9327 2.04369 11.2437 2.3818 11.5215L4.62256 9.29203V12.7223C5.23286 12.9074 5.88019 13.0048 6.54959 12.9998C7.18508 12.995 7.79826 12.8982 8.3775 12.7231V9.29208L11.3724 12.2719C11.8051 12.1722 12.1274 11.7844 12.1264 11.3216L12.1261 11.1736L9.30626 8.36804H12.7264V8.36801Z" fill="#E3E3E3"/>
<path d="M6 13V0C5.52331 0.0360839 5.06101 0.123505 4.61867 0.257222V3.69991L2.37561 1.45975C2.03761 1.73837 1.72824 2.05059 1.45238 2.39126L3.69065 4.62663H0.272155C0.0852806 5.25289 -0.0103114 5.91872 0.000882259 6.60842C0.0108265 7.221 0.105603 7.81311 0.273787 8.37352H3.69067L1.4561 10.6052C1.7323 10.9457 2.04197 11.2576 2.37979 11.5362L4.61867 9.30027V12.7406C5.0615 12.8755 5.52388 12.9636 6 13Z" fill="white"/>
<path d="M12.9141 5.44634H7.55906V0.0867207C7.24223 0.0344159 6.9178 0.00491193 6.58735 0.000570126C6.19644 -0.00455879 5.81337 0.024996 5.44099 0.0860606V5.44631H0.0851252C0.0236231 5.8237 -0.00559675 6.21189 0.000885216 6.60804C0.00614224 6.92949 0.0351069 7.24519 0.0857122 7.55369H5.44094V12.9132C5.80166 12.9729 6.17207 13.0027 6.54953 12.9998C6.89318 12.9972 7.23024 12.9675 7.55903 12.9132V7.55374H12.9144C12.968 7.22633 12.9973 6.89074 12.9998 6.54878C13.0026 6.17345 12.9731 5.80511 12.9141 5.44634Z" fill="#D80027"/>
</svg>
