<svg width="13" height="14" viewBox="0 0 13 14" fill="none" xmlns="http://www.w3.org/2000/svg">
<g clip-path="url(#clip0)">
<path d="M6.5 13.9321C10.0899 13.9321 13 11.022 13 7.43213C13 3.84228 10.0899 0.932129 6.5 0.932129C2.91015 0.932129 0 3.84228 0 7.43213C0 11.022 2.91015 13.9321 6.5 13.9321Z" fill="#F0F0F0"/>
<path d="M13.0001 7.43218C13.0001 4.85518 11.5004 2.62852 9.32617 1.57715V13.2872C11.5004 12.2358 13.0001 10.0092 13.0001 7.43218Z" fill="#D80027"/>
<path d="M0 7.43218C0 10.0092 1.4997 12.2358 3.67392 13.2872V1.57715C1.4997 2.62852 0 4.85518 0 7.43218Z" fill="#6DA544"/>
<path d="M4.80469 7.4324C4.80469 8.36888 5.56387 9.12806 6.50036 9.12806C7.43684 9.12806 8.19603 8.36888 8.19603 7.4324V6.86719H4.80469V7.4324Z" fill="#6DA544"/>
<path d="M8.76101 6.30203H7.06535C7.06535 5.98988 6.81228 5.73682 6.50013 5.73682C6.18798 5.73682 5.93491 5.98988 5.93491 6.30203H4.23926C4.23926 6.61421 4.51117 6.86725 4.82329 6.86725H4.80448C4.80448 7.17943 5.05752 7.43247 5.3697 7.43247C5.3697 7.74464 5.62274 7.99768 5.93491 7.99768H7.06535C7.37753 7.99768 7.63057 7.74464 7.63057 7.43247C7.94275 7.43247 8.19579 7.17943 8.19579 6.86725H8.17695C8.48913 6.86725 8.76101 6.61421 8.76101 6.30203Z" fill="#FF9811"/>
</g>
<defs>
<clipPath id="clip0">
<rect width="13" height="13" fill="white" transform="translate(0 0.932129)"/>
</clipPath>
</defs>
</svg>
