<svg width="13" height="14" viewBox="0 0 13 14" fill="none" xmlns="http://www.w3.org/2000/svg">
<g clip-path="url(#clip0)">
<path d="M6.5 13.2334C10.0899 13.2334 13 10.3232 13 6.7334C13 3.14355 10.0899 0.233398 6.5 0.233398C2.91015 0.233398 0 3.14355 0 6.7334C0 10.3232 2.91015 13.2334 6.5 13.2334Z" fill="#F0F0F0"/>
<path d="M6.49952 0.233398V6.7334L1.90332 11.3296C3.07959 12.5059 4.70458 13.2334 6.49952 13.2334C10.0893 13.2334 12.9995 10.3232 12.9995 6.7334C12.9995 3.14357 6.49952 0.233398 6.49952 0.233398Z" fill="#D80027"/>
<path d="M6.49952 0.233398C4.70458 0.233398 3.07959 0.960941 1.90332 2.13719C3.4981 3.73197 4.06423 4.29813 6.49952 6.7334H12.9995C12.9995 3.14357 10.0893 0.233398 6.49952 0.233398Z" fill="#0052B4"/>
<path d="M4.45096 6.73337L3.65714 6.35997L4.07987 5.59117L3.21786 5.75608L3.10863 4.88525L2.50819 5.52571L1.90778 4.88525L1.79853 5.75608L0.936539 5.59114L1.35927 6.35997L0.56543 6.73337L1.35927 7.10677L0.936539 7.87557L1.7986 7.71068L1.90776 8.58148L2.50819 7.94103L3.10863 8.58148L3.21786 7.71068L4.07982 7.8756L3.65712 7.10679L4.45096 6.73337Z" fill="#FFDA44"/>
<path d="M1.73406 2.77686L1.99823 3.14611L2.43101 3.00903L2.16141 3.37434L2.42558 3.7436L1.9948 3.60012L1.72523 3.96541L1.7286 3.51143L1.29785 3.36792L1.73071 3.23084L1.73406 2.77686Z" fill="#FFDA44"/>
<path d="M1.73406 9.50146L1.99823 9.87072L2.43101 9.73361L2.16141 10.099L2.42558 10.4682L1.9948 10.3247L1.72523 10.69L1.7286 10.236L1.29785 10.0925L1.73071 9.95545L1.73406 9.50146Z" fill="#FFDA44"/>
<path d="M5.50163 6.13916L5.2375 6.50842L4.80469 6.37128L5.07429 6.73663L4.81012 7.10591L5.2409 6.9624L5.5105 7.3277L5.50709 6.87374L5.93785 6.73023L5.50501 6.59314L5.50163 6.13916Z" fill="#FFDA44"/>
</g>
<defs>
<clipPath id="clip0">
<rect width="13" height="13" fill="white" transform="translate(0 0.233398)"/>
</clipPath>
</defs>
</svg>
