<svg width="14" height="14" viewBox="0 0 14 14" fill="none" xmlns="http://www.w3.org/2000/svg">
<g clip-path="url(#clip0)">
<path d="M7 13.8359C10.5899 13.8359 13.5 10.9258 13.5 7.33594C13.5 3.74609 10.5899 0.835938 7 0.835938C3.41015 0.835938 0.5 3.74609 0.5 7.33594C0.5 10.9258 3.41015 13.8359 7 13.8359Z" fill="#F0F0F0"/>
<path d="M13.0957 9.59691C13.357 8.89275 13.5 8.13114 13.5 7.33605C13.5 6.54097 13.357 5.77935 13.0957 5.0752H0.904295C0.643025 5.77935 0.5 6.54097 0.5 7.33605C0.5 8.13114 0.643025 8.89275 0.904295 9.59691L7 10.1621L13.0957 9.59691Z" fill="#0052B4"/>
<path d="M7 13.8358C9.79477 13.8358 12.1773 12.0719 13.0957 9.59668H0.904297C1.8227 12.0719 4.20523 13.8358 7 13.8358Z" fill="#D80027"/>
</g>
<defs>
<clipPath id="clip0">
<rect width="13" height="13" fill="white" transform="translate(0.5 0.835938)"/>
</clipPath>
</defs>
</svg>
