<svg width="13" height="14" viewBox="0 0 13 14" fill="none" xmlns="http://www.w3.org/2000/svg">
<g clip-path="url(#clip0)">
<path d="M0 7.19962C0 7.99471 0.143025 8.75632 0.404295 9.46048L6.5 10.0257L12.5957 9.46048C12.857 8.75632 13 7.99471 13 7.19962C13 6.40454 12.857 5.64292 12.5957 4.93876L6.5 4.37354L0.404295 4.93876C0.143025 5.64292 0 6.40454 0 7.19962Z" fill="#FFDA44"/>
<path d="M12.5957 4.93836C11.6773 2.46318 9.29477 0.699219 6.5 0.699219C3.70523 0.699219 1.3227 2.46318 0.404297 4.93836H12.5957Z" fill="#D80027"/>
<path d="M0.404297 9.45996C1.3227 11.9351 3.70523 13.6991 6.5 13.6991C9.29477 13.6991 11.6773 11.9351 12.5957 9.45996H0.404297Z" fill="#D80027"/>
</g>
<defs>
<clipPath id="clip0">
<rect width="13" height="13" fill="white" transform="translate(0 0.699219)"/>
</clipPath>
</defs>
</svg>
