<svg width="13" height="13" viewBox="0 0 13 13" fill="none" xmlns="http://www.w3.org/2000/svg">
<path d="M6.49999 13C10.0898 13 13 10.0898 13 6.49999C13 2.91014 10.0898 0 6.49999 0C2.91014 0 0 2.91014 0 6.49999C0 10.0898 2.91014 13 6.49999 13Z" fill="#FFDA44"/>
<path d="M5.08722 1.13037H2.83672C2.73699 1.19855 2.63938 1.26951 2.54374 1.34297L1.97852 6.49991L2.54374 11.6569C2.63938 11.7303 2.73699 11.8013 2.83672 11.8695H5.08722V1.13037Z" fill="#FF9811"/>
<path d="M0 6.50024C0 8.60119 0.997041 10.469 2.54349 11.6572V1.34326C0.997041 2.53149 0 4.39928 0 6.50024Z" fill="#6DA544"/>
<path d="M10.4561 3.9624V4.12503L10.4621 4.12594L10.4561 3.9624Z" fill="#FFDA44"/>
<path d="M12.4817 8.19558H11.257L10.7389 8.7608V9.89125H9.60847V9.32602H10.1737V8.19558H7.63021V8.9021H7.06499V7.55561C6.89157 7.40037 6.78239 7.17488 6.78239 6.92384V3.24993C6.78239 2.7817 7.16198 2.40211 7.63021 2.40211V7.63038H8.76065L9.14852 7.30713C9.08078 7.14578 9.04325 6.96858 9.04325 6.78256V5.93474H8.19543V4.2391H9.89107C9.89107 3.95651 10.315 3.67388 10.315 3.67388C10.315 3.67388 10.7389 3.95648 10.7389 4.2391V4.66303V5.93477C11.0533 5.9385 11.5529 5.93035 12.0925 5.93477C11.9508 5.68696 11.8693 5.39291 11.8693 5.08695C11.8693 4.58825 12.0846 4.1399 12.4274 3.82963C11.9334 2.73491 11.1451 1.8015 10.1633 1.13037H5.93457V11.8695H10.1633C11.3572 11.0534 12.2649 9.84963 12.7052 8.43948L12.4817 8.19558Z" fill="#A2001D"/>
</svg>
